<?xml version="1.0" encoding="utf-8"?>
<!-- Generator: Adobe Illustrator 15.0.0, SVG Export Plug-In . SVG Version: 6.00 Build 0)  -->
<!DOCTYPE svg PUBLIC "-//W3C//DTD SVG 1.1//EN" "http://www.w3.org/Graphics/SVG/1.1/DTD/svg11.dtd">
<svg version="1.1" id="Capa_1" xmlns="http://www.w3.org/2000/svg" xmlns:xlink="http://www.w3.org/1999/xlink" x="0px" y="0px"
	 width="2264.91px" height="248.311px" viewBox="0 0 2264.91 248.311" enable-background="new 0 0 2264.91 248.311"
	 xml:space="preserve">
<g>
	<g>
		<path fill="#0076B8" d="M2217.741,68.954c-4.336-1.358-8.499-2.178-12.482-2.447c-3.993-0.272-7.938-0.09-11.835,0.539
			c-3.903,0.643-8.282,1.773-13.139,3.406c-7.974,2.539-14.138,7.797-18.472,15.776s-6.496,16.593-6.496,25.841
			c-0.693,7.615,0,14.326,2.072,20.128c2.082,5.803,4.944,11.111,8.588,15.911c3.643,4.81,7.938,9.206,12.875,13.196
			c4.943,3.99,9.843,7.932,14.697,11.832c4.854,3.9,9.537,7.848,14.051,11.826c4.504,3.996,8.233,8.351,11.182,13.064
			c1.038,2.171,1.434,3.9,1.173,5.168s-0.784,2.312-1.562,3.128c-0.78,0.813-1.734,1.496-2.861,2.04
			c-1.131,0.544-2.037,0.999-2.73,1.361c-3.471,1.813-8.237,1.63-14.309-0.548c-3.123-1.633-5.59-3.26-7.411-4.893
			s-3.257-3.404-4.295-5.306c-1.044-1.905-1.95-3.987-2.731-6.257c-0.773-2.267-1.689-4.941-2.727-8.027h-26.012v60.659h18.726
			c1.385-3.439,3.464-5.892,6.242-7.339c2.946-1.089,5.677-0.957,8.194,0.406c2.513,1.361,4.982,2.581,7.412,3.673
			c4.162,1.995,8.622,3.164,13.396,3.535c4.772,0.359,9.495,0.132,14.177-0.679c4.684-0.816,9.188-2.133,13.529-3.948
			c4.328-1.81,8.237-4.076,11.701-6.798c3.643-2.722,6.588-6.029,8.846-9.927c2.253-3.902,3.984-8.065,5.205-12.516
			c1.205-4.441,1.904-9.068,2.081-13.872c0.171-4.8,0.081-9.564-0.261-14.284c-1.04-6.343-2.951-11.826-5.724-16.455
			c-2.775-4.621-6.071-8.793-9.882-12.514c-3.819-3.709-7.938-7.154-12.361-10.336c-4.417-3.17-8.757-6.388-13-9.654
			c-4.254-3.26-8.237-6.753-11.97-10.468c-3.733-3.721-6.721-7.938-8.973-12.651c-0.87-2.536-0.69-4.624,0.521-6.256
			c1.211-1.633,2.686-2.896,4.424-3.808c3.287-1.085,6.498-0.906,9.621,0.542c2.949,1.454,5.291,2.817,7.028,4.08
			c1.729,1.274,3.161,2.59,4.288,3.948c1.125,1.358,2.034,2.901,2.731,4.621c0.69,1.726,1.472,3.676,2.342,5.85h22.368V69.366
			h-18.986l-4.423,5.437C2227.016,72.267,2222.073,70.317,2217.741,68.954 M2077.014,140.087v-6.257
			c0-4.354,0.306-9.113,0.916-14.281c0.602-5.168,1.776-9.789,3.508-13.875c1.734-4.079,4.334-6.026,7.807-5.847
			c4.51,0,8.021,2.904,10.533,8.703c2.512,5.805,3.774,16.142,3.774,31.009L2077.014,140.087z M2111.358,242.361
			c7.106-3.442,13.48-8.252,19.115-14.416s10.362-13.558,14.176-22.171c3.813-8.61,6.505-18.085,8.066-28.421h-48.129
			c0,5.802-0.346,10.516-1.034,14.146c-0.696,3.631-1.608,6.433-2.733,8.428c-1.131,1.998-2.432,3.313-3.903,3.945
			c-1.472,0.637-2.987,0.864-4.549,0.682c-3.816-0.179-6.765-1.995-8.847-5.446c-2.082-3.439-3.553-7.429-4.424-11.963
			c-0.864-4.534-1.256-9.113-1.166-13.739c0.086-4.624,0.475-8.294,1.166-11.013h73.619c0-12.517-1.606-24.524-4.815-36.045
			c-3.212-11.515-7.669-21.71-13.393-30.602c-5.725-8.877-12.487-15.998-20.293-21.349c-7.803-5.347-16.297-8.027-25.491-8.027
			c-9.193,0-17.773,2.36-25.75,7.077c-7.977,4.713-14.957,11.149-20.936,19.312c-5.991,8.156-10.713,17.727-14.177,28.697
			c-3.479,10.97-5.21,22.712-5.21,35.226c0,12.507,1.731,24.303,5.21,35.357c3.464,11.063,8.186,20.72,14.177,28.972
			c5.979,8.255,12.959,14.735,20.936,19.449s16.557,7.07,25.75,7.07C2096.7,247.529,2104.241,245.8,2111.358,242.361
			 M1916.135,75.073c-1.477-1.445-2.993-2.626-4.555-3.535c-4.507-2.719-9.273-4.391-14.302-5.031
			c-5.034-0.634-10.103-0.542-15.218,0.269c-5.113,0.82-10.103,2.178-14.957,4.08c-4.854,1.908-9.457,3.948-13.787,6.125
			l-1.044-7.893h-55.398v36.455c2.946,1.085,5.288,2.578,7.022,4.486c1.729,1.902,3.289,4.307,4.68,7.208v72.354
			c-0.35,2.542-1.436,4.534-3.25,5.988c-1.818,1.447-4.466,2.991-7.932,4.618v44.611h67.628v-45.152
			c-2.081-0.906-3.948-1.81-5.59-2.719c-1.653-0.906-2.647-2.811-2.997-5.715v-75.072c1.732-3.439,3.518-6.161,5.333-8.159
			c1.818-1.992,4.896-2.812,9.238-2.447c3.122,0.359,5.546,1.543,7.286,3.535c1.731,1.992,3.55,4.713,5.458,8.159v73.984
			c-0.523,2.545-1.52,4.262-2.991,5.168c-1.48,0.912-3.863,2.18-7.154,3.807v44.611h66.594v-44.611
			c-2.602-0.542-4.555-1.262-5.855-2.171c-1.301-0.903-2.558-2.812-3.769-5.712l-0.521-71.813c0.521-2.174,0.861-4.166,1.035-5.985
			c0.174-1.806,0.652-3.445,1.436-4.893c0.777-1.454,2.078-2.59,3.9-3.404c1.82-0.813,4.551-1.223,8.194-1.223
			c3.29,0.183,5.761,0.679,7.408,1.499c1.651,0.816,2.862,1.902,3.643,3.266c0.786,1.357,1.347,2.898,1.696,4.621
			c0.34,1.726,0.861,3.58,1.561,5.578v70.721c-0.35,2.542-1.346,4.489-2.99,5.85c-1.657,1.358-3.864,2.578-6.637,3.667v44.611h66.59
			v-45.7c-3.469-0.538-5.981-1.175-7.543-1.902c-1.561-0.718-3.293-2.357-5.203-4.893V120.5c0.35-4.352,0.299-9.065-0.132-14.144
			c-0.431-5.076-1.298-9.929-2.597-14.55c-1.301-4.627-3.041-8.796-5.203-12.517c-2.172-3.714-4.815-6.299-7.932-7.752
			c-5.384-2.719-11.061-4.438-17.039-5.168c-5.984-0.724-11.969-0.628-17.947,0.275c-5.982,0.909-11.797,2.494-17.432,4.758
			c-5.635,2.27-10.623,5.027-14.957,8.3C1918.867,78.063,1917.61,76.532,1916.135,75.073 M1741.463,3.263
			c-3.113,1.457-5.847,3.397-8.186,5.85c-2.348,2.446-4.211,5.351-5.596,8.703c-1.391,3.359-2.082,6.933-2.082,10.743
			c0,7.618,2.512,14.06,7.546,19.314c5.024,5.261,11.18,7.884,18.466,7.884c3.643,0,7.061-0.718,10.273-2.174
			c3.209-1.444,5.984-3.4,8.326-5.847c2.342-2.447,4.199-5.3,5.596-8.566c1.382-3.263,2.082-6.801,2.082-10.611
			c0-7.794-2.52-14.32-7.543-19.584c-5.037-5.258-11.279-7.884-18.734-7.884C1747.969,1.092,1744.588,1.815,1741.463,3.263
			 M1718.054,68.546v36.449c5.554,1.995,9.628,5.895,12.229,11.697v72.356c-0.35,2.539-1.436,4.717-3.251,6.529
			c-1.818,1.813-4.642,3.529-8.452,5.168v44.061h73.613v-44.061c-2.952-0.55-5.59-1.639-7.935-3.266
			c-2.345-1.633-4.466-4.259-6.37-7.89V68.546H1718.054z M1588.779,244.807h94.94v-45.152c-3.115-0.721-5.547-1.313-7.279-1.768
			c-1.734-0.448-3.122-0.951-4.163-1.498c-1.04-0.542-1.95-1.221-2.733-2.037c-0.774-0.816-1.779-2.04-2.99-3.673V49.776
			c0-1.989,0.609-3.17,1.824-3.532c1.208-0.362,3.463-0.547,6.762-0.547c3.287,1.998,5.545,5.396,6.766,10.202
			c1.211,4.806,1.814,9.478,1.814,14.006v34.006h30.701V0h-156.075v104.455l30.434-0.544V69.904c0-2.177-0.089-4.259-0.26-6.253
			c-0.18-1.995,0-3.945,0.521-5.85c0.521-1.902,1.562-3.849,3.122-5.847c1.562-1.995,3.984-4.08,7.286-6.257
			c3.287,0,5.239,0.275,5.851,0.816c0.601,0.542,0.912,2.354,0.912,5.44v138.726c-1.218,1.633-2.303,2.856-3.254,3.673
			c-0.957,0.816-2.037,1.496-3.254,2.037c-1.215,0.547-2.692,1.05-4.418,1.498c-1.738,0.455-3.903,1.047-6.506,1.768V244.807z"/>
		<path fill="#231F20" d="M1466.53,69.031c-4.339-1.361-8.503-2.184-12.489-2.453c-3.993-0.269-7.932-0.084-11.835,0.55
			c-3.903,0.631-8.284,1.762-13.136,3.395c-7.979,2.54-14.135,7.791-18.465,15.771c-4.343,7.979-6.505,16.587-6.505,25.829
			c-0.691,7.615,0,14.32,2.078,20.122c2.082,5.803,4.941,11.102,8.584,15.905c3.643,4.804,7.938,9.2,12.882,13.189
			c4.935,3.987,9.836,7.926,14.693,11.826c4.848,3.896,9.531,7.845,14.045,11.828c4.51,3.984,8.236,8.336,11.186,13.049
			c1.044,2.177,1.43,3.9,1.17,5.168c-0.261,1.268-0.781,2.312-1.562,3.123c-0.78,0.819-1.731,1.501-2.862,2.042
			c-1.125,0.547-2.037,1.002-2.728,1.361c-3.473,1.813-8.237,1.627-14.308-0.544c-3.126-1.627-5.594-3.266-7.415-4.899
			c-1.821-1.627-3.251-3.392-4.288-5.3c-1.041-1.902-1.957-3.983-2.737-6.25s-1.687-4.941-2.728-8.021H1404.1v60.636h18.726
			c1.391-3.443,3.472-5.893,6.244-7.34c2.949-1.092,5.68-0.957,8.192,0.4c2.512,1.361,4.979,2.584,7.411,3.673
			c4.163,1.995,8.631,3.164,13.404,3.535c4.759,0.359,9.49,0.132,14.168-0.679c4.689-0.816,9.196-2.133,13.53-3.945
			c4.334-1.806,8.23-4.076,11.706-6.795c3.643-2.719,6.589-6.023,8.841-9.924c2.252-3.894,3.989-8.065,5.204-12.507
			c1.211-4.441,1.902-9.068,2.082-13.872c0.17-4.8,0.084-9.556-0.261-14.272c-1.04-6.347-2.952-11.826-5.725-16.45
			s-6.074-8.787-9.878-12.507c-3.822-3.715-7.938-7.16-12.358-10.331c-4.427-3.17-8.763-6.388-13.007-9.651
			c-4.253-3.266-8.24-6.75-11.97-10.471c-3.729-3.708-6.72-7.926-8.972-12.642c-0.871-2.533-0.697-4.627,0.52-6.26
			c1.218-1.627,2.692-2.892,4.424-3.798c3.293-1.089,6.505-0.906,9.627,0.538c2.943,1.454,5.285,2.812,7.017,4.083
			c1.731,1.265,3.167,2.581,4.298,3.939c1.125,1.358,2.037,2.901,2.728,4.621c0.694,1.726,1.472,3.676,2.342,5.85h22.368V69.438
			h-18.985l-4.423,5.431C1475.804,72.336,1470.858,70.389,1466.53,69.031 M1325.806,140.128v-6.25c0-4.352,0.303-9.11,0.906-14.275
			c0.604-5.168,1.776-9.789,3.518-13.869c1.731-4.08,4.33-6.023,7.797-5.844c4.514,0,8.021,2.898,10.537,8.697
			c2.509,5.809,3.773,16.139,3.773,30.997L1325.806,140.128z M1360.135,242.364c7.114-3.445,13.485-8.246,19.12-14.41
			c5.635-6.158,10.363-13.551,14.176-22.162c3.813-8.611,6.506-18.08,8.066-28.41h-48.119c0,5.799-0.35,10.516-1.041,14.141
			c-0.699,3.625-1.605,6.43-2.736,8.422c-1.127,1.998-2.426,3.314-3.894,3.945c-1.48,0.637-2.997,0.861-4.559,0.682
			c-3.813-0.18-6.762-1.995-8.838-5.44c-2.081-3.439-3.562-7.429-4.426-11.963c-0.868-4.528-1.263-9.11-1.173-13.731
			c0.09-4.627,0.476-8.293,1.173-11.009h73.612c0-12.514-1.605-24.513-4.809-36.033c-3.213-11.509-7.681-21.701-13.396-30.584
			c-5.725-8.883-12.489-15.995-20.295-21.343c-7.801-5.348-16.295-8.021-25.491-8.021c-9.188,0-17.774,2.357-25.751,7.064
			c-7.977,4.72-14.951,11.15-20.941,19.309c-5.976,8.156-10.704,17.721-14.177,28.685c-3.463,10.967-5.194,22.703-5.194,35.211
			c0,12.504,1.731,24.294,5.194,35.348c3.473,11.054,8.201,20.708,14.177,28.954c5.99,8.249,12.965,14.732,20.941,19.44
			c7.977,4.714,16.563,7.07,25.751,7.07C1345.483,247.529,1353.029,245.806,1360.135,242.364 M1150.485,68.622l0.521,36.431
			c5.545,1.998,9.627,5.898,12.224,11.694v72.324c-0.515,5.076-4.247,8.973-11.183,11.694v44.043h73.612v-44.043
			c-3.296-0.365-6.157-1.36-8.58-2.994c-2.432-1.63-4.343-4.163-5.725-7.608v-76.948c0-1.454,0.302-2.904,0.912-4.352
			c0.604-1.454,1.334-2.629,2.21-3.541c0.861-0.9,1.732-1.4,2.603-1.489c0.861-0.093,1.562,0.499,2.078,1.771
			c1.564,7.064,3.942,12.597,7.154,16.581c3.203,3.986,6.676,6.711,10.402,8.159c3.729,1.454,7.542,1.765,11.445,0.951
			c3.903-0.816,7.456-2.584,10.669-5.303c3.203-2.719,5.724-6.209,7.542-10.465c1.815-4.265,2.642-9.113,2.471-14.55
			c0-7.791-1.175-14.317-3.509-19.578c-2.348-5.255-7.249-9.873-14.705-13.868c-5.893-1.448-12.395-1.131-19.506,0.957
			c-7.115,2.087-13.701,6.299-19.767,12.642V68.622H1150.485z M1094.56,3.365c-3.117,1.454-5.854,3.397-8.189,5.844
			c-2.345,2.446-4.208,5.348-5.599,8.703c-1.385,3.353-2.079,6.933-2.079,10.743c0,7.611,2.512,14.044,7.546,19.303
			c5.028,5.258,11.183,7.884,18.465,7.884c3.643,0,7.064-0.724,10.276-2.171c3.203-1.454,5.981-3.404,8.326-5.85
			c2.342-2.447,4.199-5.306,5.59-8.566c1.385-3.26,2.082-6.795,2.082-10.599c0-7.794-2.513-14.32-7.546-19.578
			c-5.03-5.258-11.275-7.89-18.729-7.89C1101.065,1.188,1097.685,1.917,1094.56,3.365 M1071.151,68.622v36.431
			c5.548,1.998,9.621,5.898,12.223,11.694v72.324c-0.347,2.542-1.426,4.716-3.248,6.526c-1.822,1.813-4.645,3.535-8.458,5.168
			v44.043h73.616v-44.043c-2.949-0.544-5.593-1.633-7.932-3.263c-2.345-1.633-4.471-4.256-6.373-7.887V68.622H1071.151z
			 M940.832,0.105l-36.673,187.877c-1.044,2.18-2.04,3.903-2.997,5.168c-0.951,1.268-2.04,2.27-3.248,2.991
			c-1.217,0.73-2.602,1.316-4.163,1.765c-1.561,0.455-3.643,1.05-6.242,1.768v45.134h75.174v-45.134
			c-5.378,0-9.194-1.038-11.446-3.123c-2.258-2.084-2.859-4.396-1.821-6.936l3.643-16.043h26.271l4.163,16.043
			c0.174,1.268,0,2.494-0.523,3.67c-0.517,1.181-1.298,2.27-2.335,3.266c-1.044,0.996-2.216,1.762-3.517,2.312
			c-1.298,0.542-2.558,0.811-3.769,0.811v45.134h88.959v-45.134c-1.038-0.718-2.297-1.4-3.771-2.037
			c-1.475-0.637-2.862-1.406-4.16-2.309c-1.301-0.909-2.432-1.95-3.383-3.128c-0.957-1.178-1.43-2.584-1.43-4.217L1005.864,0.105
			H940.832z M977.508,140.128l-22.368,0.545l10.662-50.303L977.508,140.128z M795.167,69.031c-4.337-1.361-8.5-2.184-12.48-2.453
			c-3.993-0.269-7.935-0.084-11.841,0.55c-3.9,0.631-8.278,1.762-13.133,3.395c-7.977,2.54-14.135,7.791-18.468,15.771
			s-6.502,16.587-6.502,25.829c-0.69,7.615,0,14.32,2.082,20.122c2.079,5.803,4.941,11.102,8.584,15.905
			c3.637,4.804,7.932,9.2,12.872,13.189c4.944,3.987,9.84,7.926,14.703,11.826c4.848,3.896,9.528,7.845,14.039,11.828
			c4.507,3.984,8.236,8.336,11.188,13.049c1.038,2.177,1.427,3.9,1.169,5.168c-0.26,1.268-0.78,2.312-1.561,3.123
			c-0.781,0.819-1.735,1.501-2.862,2.042c-1.131,0.547-2.037,1.002-2.728,1.361c-3.472,1.813-8.243,1.627-14.311-0.544
			c-3.119-1.627-5.59-3.266-7.408-4.899c-1.824-1.627-3.251-3.392-4.295-5.3c-1.038-1.902-1.95-3.983-2.73-6.25
			s-1.689-4.941-2.733-8.021h-26.009v60.636h18.729c1.388-3.443,3.469-5.893,6.242-7.34c2.946-1.092,5.68-0.957,8.192,0.4
			c2.512,1.361,4.983,2.584,7.415,3.673c4.16,1.995,8.628,3.164,13.396,3.535c4.768,0.359,9.496,0.132,14.177-0.679
			c4.681-0.816,9.193-2.133,13.527-3.945c4.333-1.806,8.233-4.076,11.709-6.795c3.637-2.719,6.586-6.023,8.841-9.924
			c2.252-3.894,3.99-8.065,5.198-12.507c1.214-4.441,1.908-9.068,2.081-13.872c0.174-4.8,0.09-9.556-0.257-14.272
			c-1.041-6.347-2.952-11.826-5.722-16.45c-2.775-4.624-6.074-8.787-9.888-12.507c-3.819-3.715-7.935-7.16-12.352-10.331
			c-4.424-3.17-8.76-6.388-13.01-9.651c-4.25-3.266-8.237-6.75-11.963-10.471c-3.729-3.708-6.727-7.926-8.976-12.642
			c-0.867-2.533-0.693-4.627,0.523-6.26c1.208-1.627,2.683-2.892,4.418-3.798c3.295-1.089,6.508-0.906,9.627,0.538
			c2.949,1.454,5.285,2.812,7.022,4.083c1.731,1.265,3.161,2.581,4.292,3.939c1.125,1.358,2.04,2.901,2.733,4.621
			c0.688,1.726,1.469,3.676,2.339,5.85h22.371V69.438h-18.988l-4.424,5.431C804.442,72.336,799.504,70.389,795.167,69.031
			 M669.667,104.102c1.818,2.814,3.379,6.622,4.684,11.425c1.298,4.803,2.297,10.465,2.988,16.988
			c0.691,6.532,1.038,13.506,1.038,20.936c0,7.256-0.347,14.141-1.038,20.669c-0.691,6.523-1.689,12.277-2.988,17.263
			c-1.304,4.989-2.865,8.934-4.684,11.829c-1.825,2.901-3.861,4.354-6.113,4.354c-2.082,0-4.035-1.412-5.853-4.223
			c-1.818-2.805-3.38-6.612-4.681-11.419c-1.301-4.797-2.345-10.42-3.125-16.853c-0.781-6.433-1.17-13.279-1.17-20.529
			c0-7.429,0.389-14.455,1.17-21.076c0.78-6.613,1.824-12.409,3.125-17.397c1.301-4.989,2.862-8.928,4.681-11.826
			c1.818-2.898,3.771-4.352,5.853-4.352C665.806,99.89,667.842,101.296,669.667,104.102 M637.28,73.511
			c-7.979,4.72-14.958,11.15-20.939,19.309c-5.982,8.156-10.708,17.721-14.176,28.685c-3.473,10.967-5.204,22.703-5.204,35.211
			c0,12.504,1.731,24.294,5.204,35.348c3.469,11.054,8.194,20.708,14.176,28.954c5.981,8.249,12.959,14.732,20.939,19.44
			c7.976,4.714,16.56,7.07,25.754,7.07c9.188,0,17.816-2.356,25.882-7.07c8.063-4.708,15.128-11.191,21.199-19.44
			c6.065-8.246,10.836-17.9,14.308-28.954c3.463-11.054,5.198-22.844,5.198-35.348c0-12.508-1.734-24.244-5.198-35.211
			c-3.472-10.964-8.243-20.529-14.308-28.685c-6.071-8.159-13.136-14.589-21.199-19.309c-8.066-4.708-16.694-7.064-25.882-7.064
			C653.839,66.447,645.256,68.804,637.28,73.511 M451.042,69.16v36.443c5.198,1.992,9.104,5.889,11.703,11.688v72.324
			c-1.041,5.072-4.773,8.973-11.186,11.691v42.96h67.11v-43.502c-2.081-0.909-3.902-1.992-5.461-3.263
			c-1.561-1.271-2.429-3.355-2.605-6.26l-0.517-75.04c1.731-3.439,3.595-6.161,5.596-8.156c1.989-1.995,4.977-2.809,8.972-2.443
			c3.123,0.362,5.548,1.537,7.28,3.529c1.731,2.001,3.556,4.713,5.467,8.159v73.951c-0.356,2.545-1.262,4.582-2.734,6.119
			c-1.475,1.543-3.948,3.039-7.414,4.492v43.505h67.111v-43.505c-2.949-0.365-5.422-1.13-7.415-2.309
			c-1.995-1.185-3.771-3.583-5.332-7.211v-71.238c0.35-4.349,0.263-9.011-0.258-14c-0.52-4.986-1.436-9.834-2.733-14.544
			c-1.301-4.713-3.039-8.927-5.201-12.645c-2.171-3.715-4.729-6.478-7.677-8.296c-4.681-2.719-9.583-4.391-14.694-5.031
			c-5.117-0.631-10.234-0.541-15.349,0.269c-5.111,0.823-10.1,2.184-14.954,4.085c-4.86,1.905-9.454,3.936-13.785,6.119
			l-0.526-7.893H451.042z M372.745,140.128v-6.25c0-4.352,0.299-9.11,0.909-14.275c0.607-5.168,1.773-9.789,3.511-13.869
			c1.731-4.08,4.331-6.023,7.806-5.844c4.504,0,8.016,2.898,10.534,8.697c2.512,5.809,3.771,16.139,3.771,30.997L372.745,140.128z
			 M407.08,242.364c7.109-3.445,13.479-8.246,19.12-14.41c5.632-6.158,10.36-13.551,14.177-22.162
			c3.81-8.611,6.502-18.08,8.063-28.41H400.32c0,5.799-0.356,10.516-1.043,14.141c-0.697,3.625-1.604,6.43-2.731,8.422
			c-1.13,1.998-2.435,3.314-3.906,3.945c-1.472,0.637-2.988,0.861-4.549,0.682c-3.813-0.18-6.762-1.995-8.844-5.44
			c-2.082-3.439-3.556-7.429-4.42-11.963c-0.873-4.528-1.262-9.11-1.172-13.731c0.083-4.627,0.476-8.293,1.172-11.009h73.613
			c0-12.514-1.606-24.513-4.815-36.033c-3.209-11.509-7.672-21.701-13.396-30.584c-5.718-8.883-12.484-15.995-20.287-21.343
			c-7.803-5.348-16.303-8.021-25.491-8.021c-9.197,0-17.777,2.357-25.751,7.064c-7.982,4.72-14.96,11.15-20.942,19.309
			c-5.987,8.156-10.713,17.721-14.176,28.685c-3.475,10.967-5.204,22.703-5.204,35.211c0,12.504,1.729,24.294,5.204,35.348
			c3.463,11.054,8.189,20.708,14.176,28.954c5.982,8.249,12.959,14.732,20.942,19.44c7.974,4.714,16.554,7.07,25.751,7.07
			C392.421,247.529,399.964,245.806,407.08,242.364 M315.782,245.358v-36.713c-5.38-2.171-9.28-6.068-11.706-11.691l0.521-128.874
			h-56.445l0.518,45.672c1.908,0.727,3.727,1.726,5.464,2.994c1.731,1.274,2.772,3.445,3.125,6.526v74.771
			c-1.914,3.631-3.906,6.388-5.988,8.291c-2.081,1.908-5.117,2.68-9.101,2.312c-3.126-0.358-5.554-1.492-7.286-3.395
			c-1.737-1.908-3.556-4.666-5.461-8.296L228.905,68.08h-55.928v44.587c2.77,0.368,5.159,1.085,7.154,2.177
			c1.992,1.089,3.682,3.535,5.069,7.34v71.241c0,4.166,0.263,8.742,0.781,13.728c0.521,4.989,1.388,9.837,2.602,14.541
			c1.212,4.72,2.817,8.979,4.813,12.783c1.989,3.811,4.462,6.525,7.414,8.159c4.684,2.722,9.628,4.438,14.826,5.165
			c5.201,0.721,10.36,0.679,15.477-0.135c5.114-0.816,10.104-2.178,14.957-4.08c4.854-1.901,9.451-3.941,13.788-6.119l1.038,7.891
			H315.782z M100.013,93.364c-1.478,3.446-3.383,5.709-5.722,6.795c-2.342,1.088-4.944,1.495-7.806,1.226
			c-2.859-0.275-5.59-0.41-8.192-0.41l1.041-48.397c2.426,0.183,4.985,0.09,7.671-0.272c2.689-0.359,5.159,0,7.415,1.088
			c2.252,1.086,4.115,3.356,5.593,6.795c1.471,3.445,2.213,9.068,2.213,16.862C102.226,84.485,101.484,89.922,100.013,93.364
			 M100.013,190.566c-1.478,3.9-3.383,6.526-5.722,7.887c-2.342,1.361-4.944,1.902-7.806,1.63c-2.859-0.269-5.59-0.41-8.192-0.41
			l1.041-55.195c2.426,0.185,4.985,0,7.671-0.542c2.689-0.547,5.159-0.225,7.415,0.951c2.252,1.181,4.115,3.766,5.593,7.752
			c1.471,3.984,2.213,10.423,2.213,19.3C102.226,180.463,101.484,186.666,100.013,190.566 M0,0.105v45.673
			c2.599,0.547,4.812,1.091,6.63,1.636c1.822,0.544,3.335,1.316,4.556,2.312c1.205,0.996,2.249,2.222,3.116,3.669
			c0.867,1.454,1.824,3.26,2.862,5.438V190.7c-1.911,3.086-4.418,5.348-7.543,6.801c-3.119,1.454-6.155,2.354-9.104,2.719L0,244.807
			h80.375c8.323,0,16.604-0.222,24.841-0.676c8.231-0.455,16.521-1.675,24.839-3.673c7.456-3.081,14.263-7.926,20.418-14.547
			c6.155-6.61,10.71-14.272,13.659-22.976c1.388-5.614,2.297-11.464,2.734-17.532c0.428-6.078,0.212-12.28-0.655-18.627
			c-1.035-10.154-4.289-19.351-9.75-27.599s-12.095-14.637-19.901-19.171c2.602-2.171,4.594-3.983,5.982-5.431
			c1.388-1.454,2.602-2.764,3.643-3.948c1.041-1.179,2.12-2.536,3.251-4.074c1.127-1.54,2.817-3.583,5.072-6.119
			c2.946-5.075,5.072-10.605,6.374-16.587c1.298-5.985,1.777-12.101,1.433-18.358c-0.35-6.25-1.474-12.37-3.382-18.352
			c-1.911-5.981-4.6-11.592-8.066-16.856c-4.337-6.526-9.191-11.781-14.568-15.768c-5.371-3.99-11.18-7.07-17.424-9.242
			c-6.242-2.183-12.795-3.625-19.638-4.354C92.38,0.195,85.403-0.075,78.293,0.105H0z"/>
	</g>
</g>
</svg>
